<?xml version="1.0" encoding="UTF-8" standalone="no"?>
<svg
   viewBox="0 0 32 32"
   version="1.1"
   id="svg5"
   sodipodi:docname="code-hard.svg"
   xml:space="preserve"
   inkscape:version="1.4.2 (ebf0e940d0, 2025-05-08)"
   xmlns:inkscape="http://www.inkscape.org/namespaces/inkscape"
   xmlns:sodipodi="http://sodipodi.sourceforge.net/DTD/sodipodi-0.dtd"
   xmlns="http://www.w3.org/2000/svg"
   xmlns:svg="http://www.w3.org/2000/svg"><sodipodi:namedview
     id="namedview5"
     pagecolor="#ffffff"
     bordercolor="#000000"
     borderopacity="0.25"
     inkscape:showpageshadow="2"
     inkscape:pageopacity="0.0"
     inkscape:pagecheckerboard="0"
     inkscape:deskcolor="#d1d1d1"
     inkscape:zoom="16.316166"
     inkscape:cx="13.177115"
     inkscape:cy="16.333494"
     inkscape:window-width="1536"
     inkscape:window-height="806"
     inkscape:window-x="0"
     inkscape:window-y="0"
     inkscape:window-maximized="1"
     inkscape:current-layer="svg5" /><defs
     id="defs3051"><style
       type="text/css"
       id="current-color-scheme">.ColorScheme-Accent { color: #3daee9; } .ColorScheme-Text { color: #fcfcfc; } </style><style
       type="text/css"
       id="current-color-scheme-6">.ColorScheme-Text { color: #fcfcfc; } </style></defs><path
     style="fill:#f63737;fill-opacity:1;stroke:none"
     d="M 2 3 L 2 10 L 1 10 L 1 29 L 12 29 L 13 29 L 31 29 L 31 8 L 30 8 L 30 5 L 16 5 L 14 3 L 2 3 z "
     class="ColorScheme-Accent"
     id="path1" /><path
     style="fill-opacity:0.33;fill-rule:evenodd"
     d="m 2,3 0,7 9,0 L 13,8 30,8 30,5 16,5 14,3 2,3 Z"
     id="path2" /><path
     style="fill:#ffffff;fill-opacity:0.2;fill-rule:evenodd"
     d="M 14 3 L 15 6 L 30 6 L 30 5 L 16 5 L 14 3 z M 13 8 L 11 10 L 1 10 L 1 11 L 12 11 L 13 8 z "
     id="path3" /><path
     style="fill-opacity:0.2;fill-rule:evenodd"
     d="M 13 8 L 11 9 L 2 9 L 2 10 L 11 10 L 13 8 z M 1 28 L 1 29 L 31 29 L 31 28 L 1 28 z "
     class="ColorScheme-Text"
     id="path4" /><path
     style="fill:#fcfcfc;fill-opacity:0.6;stroke:none;stroke-width:0.625"
     d="m 15.403076,13.000003 c -1.110519,0 -1.575928,0.441529 -1.575928,1.568603 v 1.525879 c 0,0.696137 -0.02137,1.502686 -0.634765,1.502686 H 12.875 v 0.805663 h 0.317383 c 0.613425,0 0.634765,0.806548 0.634765,1.502685 v 1.525878 C 13.827148,22.558472 14.292557,23 15.403076,23 v -0.739745 c -0.740344,0 -0.750733,-0.298955 -0.750733,-1.381835 v -1.259769 c 0,-0.519331 -0.12794,-1.292111 -0.751953,-1.612548 0.624013,-0.320444 0.751953,-1.094433 0.751953,-1.61377 v -1.270752 c 0,-1.082874 0.01037,-1.381835 0.750733,-1.381835 V 13 m 1.184081,0 v 0.739746 c 0.74035,0 0.760498,0.298961 0.760498,1.381835 v 1.270752 c 0,0.519337 0.127941,1.293326 0.751953,1.61377 -0.624012,0.320437 -0.751953,1.093217 -0.751953,1.612548 v 1.259769 c 0,1.08288 -0.02012,1.381835 -0.760498,1.381835 V 23 c 1.110525,0 1.585693,-0.441528 1.585693,-1.568602 v -1.525879 c 0,-0.696137 0.0429,-1.502685 0.645752,-1.502685 h 0.306396 v -0.805663 h -0.306396 c -0.602856,0 -0.645752,-0.806549 -0.645752,-1.502686 v -1.525879 c 0,-1.127074 -0.475168,-1.568603 -1.585693,-1.568603"
     class="ColorScheme-Text"
     id="path1-7" /></svg>
